<?xml version="1.0" encoding="UTF-8" standalone="no"?>
<!-- Created with Inkscape (http://www.inkscape.org/) -->

<svg
   xmlns:dc="http://purl.org/dc/elements/1.1/"
   xmlns:cc="http://creativecommons.org/ns#"
   xmlns:rdf="http://www.w3.org/1999/02/22-rdf-syntax-ns#"
   xmlns:svg="http://www.w3.org/2000/svg"
   xmlns="http://www.w3.org/2000/svg"
   xmlns:sodipodi="http://sodipodi.sourceforge.net/DTD/sodipodi-0.dtd"
   xmlns:inkscape="http://www.inkscape.org/namespaces/inkscape"
   width="800"
   height="800"
   viewBox="0 0 211.66666 211.66667"
   version="1.1"
   id="svg8"
   inkscape:version="0.92.3 (2405546, 2018-03-11)"
   sodipodi:docname="logo_edited.svg"
   inkscape:export-filename="D:\Dropbox\www\chromeapp\logo_edited.png"
   inkscape:export-xdpi="15.36"
   inkscape:export-ydpi="15.36">
  <defs
     id="defs2" />
  <sodipodi:namedview
     id="base"
     pagecolor="#ffffff"
     bordercolor="#666666"
     borderopacity="1.0"
     inkscape:pageopacity="0.0"
     inkscape:pageshadow="2"
     inkscape:zoom="0.49497475"
     inkscape:cx="288.48107"
     inkscape:cy="546.02717"
     inkscape:document-units="mm"
     inkscape:current-layer="layer1"
     showgrid="false"
     inkscape:window-width="1920"
     inkscape:window-height="1017"
     inkscape:window-x="-8"
     inkscape:window-y="-8"
     inkscape:window-maximized="1"
     units="px" />
  <metadata
     id="metadata5">
    <rdf:RDF>
      <cc:Work
         rdf:about="">
        <dc:format>image/svg+xml</dc:format>
        <dc:type
           rdf:resource="http://purl.org/dc/dcmitype/StillImage" />
        <dc:title></dc:title>
      </cc:Work>
    </rdf:RDF>
  </metadata>
  <g
     inkscape:label="Ebene 1"
     inkscape:groupmode="layer"
     id="layer1"
     transform="translate(0,-85.333317)">
    <path
       style="fill:#f44336;stroke-width:0.39756587"
       inkscape:connector-curvature="0"
       d="m 150.73102,89.019706 c -15.39325,0 -29.83762,6.140528 -40.46475,16.809574 1.06846,0.55132 1.95056,1.35733 2.4677,2.47703 0.95043,2.05305 3.41038,7.40467 -21.668887,35.4517 l 26.376017,22.61156 c 0.89917,0.77184 1.4334,1.88377 1.47689,3.05318 0.0419,1.18803 -0.39912,2.32484 -1.23929,3.165 l -22.908174,22.89886 19.117314,26.75961 c 0.96752,1.34799 1.05139,3.12927 0.22831,4.57044 l -15.969414,27.95541 12.017044,32.05996 c 0.70506,1.87447 -0.059,3.86696 -1.64462,4.93541 0.0854,-0.059 0.19568,-0.0341 0.27177,-0.0933 4.06262,-3.12928 99.18959,-77.67288 99.18959,-145.40507 0,-31.56766 -25.68183,-57.249485 -57.2495,-57.249485 z m 0,0"
       id="path4728"
       inkscape:export-xdpi="95.625"
       inkscape:export-ydpi="95.625" />
    <path
       style="fill:#f44336;stroke-width:0.39756587"
       inkscape:connector-curvature="0"
       d="M 102.23419,289.82621 89.512096,255.89955 c -0.441051,-1.18649 -0.338554,-2.50187 0.288856,-3.59518 l 15.613778,-27.328 -19.617393,-27.47087 c -1.203567,-1.6881 -1.017209,-4.0036 0.448815,-5.47119 L 108.45082,169.83119 82.244091,147.37182 c -0.874331,-0.74699 -1.408559,-1.81544 -1.476894,-2.96776 -0.06679,-1.13679 0.330788,-2.26583 1.102626,-3.11375 9.567978,-10.4827 19.974567,-23.58685 22.417427,-28.89653 -0.83085,-0.74543 -1.36663,-1.82321 -1.39924,-3.01902 -0.0172,-0.77183 0.22052,-1.45825 0.55908,-2.09497 C 92.709703,95.736391 77.731099,89.019706 61.676271,89.019706 c -31.567664,0 -57.2494876,25.681824 -57.2494876,57.249484 0,67.73219 95.1269526,142.2758 99.1818066,145.42215 0.0341,0.0248 0.0839,0.0172 0.12735,0.0419 -0.6538,-0.47521 -1.20513,-1.10262 -1.50175,-1.90706 z m 0,0"
       id="path4730"
       inkscape:export-xdpi="95.625"
       inkscape:export-ydpi="95.625" />
    <path
       style="stroke-width:0.39756587"
       d="M 60.169518,86.785497 C 31.114493,86.906204 4.8405294,111.28018 2.4767312,140.22579 0.1589028,171.80661 16.99516,200.94162 35.079285,225.46743 c 19.776312,25.74148 42.90137,49.12472 68.634405,68.86331 6.77618,2.33841 11.10107,-5.82875 16.12305,-8.79209 32.4173,-28.33222 63.46952,-60.38145 81.41387,-100.08485 9.70249,-21.78181 13.75539,-48.86302 0.34118,-70.04311 C 187.5354,91.282606 155.42728,80.186411 129.50387,90.668221 120.57928,94.071871 112.50642,99.678597 106.20313,106.85506 94.808088,93.76927 77.510466,86.245458 60.169518,86.785497 Z m 1.501143,12.968828 c 16.318384,-0.30257 31.578445,9.143315 40.235939,22.660235 4.63409,3.95201 10.43149,-0.32523 12.35692,-4.96347 15.05977,-20.214936 47.06027,-23.684363 66.05252,-7.04348 15.38172,12.15713 20.07758,33.43558 15.04225,51.76745 -8.67884,34.29351 -32.63525,62.57474 -56.49318,87.65844 -10.42869,10.43929 -21.37704,21.20578 -32.84908,29.99206 C 73.369064,251.81381 41.895567,220.40982 23.428913,181.0164 14.886119,161.99575 10.424323,138.44867 23.131766,120.26409 31.598563,107.60279 46.412336,99.635838 61.670661,99.754325 Z"
       id="path4732"
       inkscape:connector-curvature="0" />
    <path
       style="stroke-width:0.39330518"
       d="m 105.83333,111.09832 c -9.476797,8.31327 -20.39503,21.72441 -27.148239,30.96397 0.587815,12.12962 29.299429,23.49776 24.079669,29.00178 -6.14017,7.01045 -19.04822,18.8775 -19.870659,21.24274 -0.582494,2.90311 2.883523,6.8696 7.958551,14.12406 5.111999,7.30733 12.753638,14.78631 10.230718,19.1369 -2.986255,9.15549 -10.943447,16.36516 -14.064951,25.41343 3.158178,12.40009 9.176212,24.20218 13.362821,36.37093 2.77479,6.46978 13.77689,3.16177 12.24906,-3.7741 -3.72454,-10.63074 -8.04888,-21.08333 -11.98492,-31.65115 5.01421,-9.80992 12.21421,-18.78374 16.26825,-28.96706 -0.25573,-7.17042 -6.46115,-13.15032 -11.00222,-17.80424 -4.31232,-4.91654 -11.140884,-9.66897 -3.399,-15.88524 5.23519,-5.02329 13.31069,-11.61628 18.44462,-19.21681 -1.94041,-13.27985 -19.77048,-17.40412 -26.219383,-27.75212 6.183063,-7.73743 14.002973,-14.87896 17.916873,-24.00386 0.61939,-3.85534 -2.83794,-7.51882 -6.82119,-7.19923 z"
       id="path4734"
       inkscape:connector-curvature="0"
       inkscape:export-xdpi="95.625"
       inkscape:export-ydpi="95.625"
       sodipodi:nodetypes="ccccscccccccccccc" />
  </g>
</svg>
